<?xml version="1.0" standalone="no"?>
<!DOCTYPE svg PUBLIC "-//W3C//DTD SVG 20010904//EN"
 "http://www.w3.org/TR/2001/REC-SVG-20010904/DTD/svg10.dtd">
<svg version="1.0" xmlns="http://www.w3.org/2000/svg"
 width="60.000000pt" height="60.000000pt" viewBox="0 0 300.000000 300.000000"
 preserveAspectRatio="xMidYMid meet">
<metadata>
Created by potrace 1.10, written by Peter Selinger 2001-2011
</metadata>
<g transform="translate(0.000000,300.000000) scale(0.050000,-0.050000)"
fill="#B94B51" stroke="none">
<path d="M3128 5945 c53 -182 75 -269 69 -275 -4 -3 -146 24 -317 61 -170 38
-332 73 -360 79 -37 8 -6 -32 127 -156 l177 -167 -327 -162 c-353 -176 -673
-375 -872 -545 -147 -125 -121 -54 -335 -910 l-155 -620 33 -370 c46 -505 41
-487 113 -378 32 48 59 84 59 78 0 -5 18 -149 40 -320 22 -170 40 -314 40
-320 0 -5 44 56 98 136 l97 147 151 -218 150 -218 124 -468 124 -469 142 -170
c77 -93 154 -186 170 -205 26 -30 26 -44 -3 -120 -18 -48 -33 -91 -33 -96 0
-6 68 -2 150 9 182 23 182 23 141 -119 -19 -62 -30 -116 -27 -120 5 -5 858
645 1078 821 27 22 62 70 77 106 15 38 88 117 174 188 239 197 338 480 271
771 -17 73 -11 113 40 280 71 229 66 221 113 178 80 -73 195 314 175 588 -19
255 -19 252 58 509 92 306 158 782 129 933 -35 186 -82 236 -418 443 -110 68
-141 103 -291 332 l-168 256 -399 273 c-420 287 -432 294 -415 238z m522 -545
c142 -100 173 -134 328 -368 l172 -259 210 -132 c220 -138 280 -208 280 -328
l0 -56 -67 41 c-55 34 -100 42 -245 42 l-176 0 88 90 c120 122 98 125 -122 18
l-188 -92 -91 39 c-66 28 -105 34 -140 21 -41 -16 -63 -2 -173 110 -189 192
-420 306 -302 150 83 -112 83 -112 -9 -95 -47 9 -118 22 -159 28 -91 15 -177
150 -231 364 l-35 137 -12 -220 c-14 -256 -46 -395 -111 -482 -61 -80 -59 -88
17 -88 l65 0 -50 -33 c-64 -43 -159 -131 -159 -147 0 -8 71 -9 158 -4 125 7
168 2 205 -24 58 -40 186 -41 390 -2 208 40 267 36 117 -8 -368 -107 -665
-336 -863 -664 -62 -102 -85 -130 -76 -88 17 78 170 530 226 666 52 128 26
122 -120 -29 -232 -241 -489 -777 -608 -1267 l-36 -150 -46 100 c-77 167 -92
292 -83 675 l8 355 110 215 c61 118 185 357 276 531 91 174 161 322 154 329
-32 31 -405 -390 -600 -679 -84 -123 -152 -218 -152 -211 0 8 27 140 60 295
33 155 60 285 60 289 0 4 164 134 365 289 201 154 389 306 418 337 28 31 132
91 230 133 176 77 336 172 380 226 20 24 40 24 143 -3 184 -48 212 -44 197 30
-14 70 -27 75 197 -81z m-382 -979 c34 -21 84 -67 110 -103 l48 -64 -48 13
c-26 7 -124 27 -216 43 -201 36 -199 35 -128 85 107 75 148 79 234 26z m477
-360 c77 -41 154 -64 248 -73 298 -29 573 -260 517 -434 -4 -13 -22 -77 -40
-141 -30 -108 -35 -115 -66 -87 -130 116 -441 207 -643 189 -208 -19 -488
-200 -846 -547 -146 -141 -153 -145 -120 -74 117 254 320 537 545 759 l145
144 -82 25 c-186 55 -170 143 46 247 131 64 163 63 296 -8z m706 -10 c50 -77
21 -88 -114 -44 l-125 41 59 25 c91 39 145 32 180 -22z m-288 -706 c218 -96
331 -279 310 -503 -12 -124 -53 -222 -53 -126 0 56 -101 281 -185 411 l-63 98
-45 -57 -46 -57 -88 86 -87 86 -57 -90 -57 -90 -87 51 c-104 61 -89 77 -154
-154 -60 -212 -91 -265 -91 -158 0 85 -52 267 -94 332 -30 45 -29 47 77 93
314 138 532 162 720 78z m-1394 -1794 c78 -427 215 -541 653 -541 l252 0 -212
-167 c-273 -215 -258 -208 -385 -171 -314 92 -453 274 -500 656 -35 283 5 858
79 1162 l54 220 13 -490 c8 -312 25 -555 46 -669z m252 38 c94 -152 237 -146
414 17 33 30 45 33 45 12 -1 -44 -90 -225 -127 -255 -55 -46 -38 -63 62 -63
272 1 457 77 673 278 l77 72 -14 -60 c-58 -250 -389 -470 -708 -470 -291 0
-410 77 -483 314 -94 306 -70 368 61 155z"/>
<path d="M3470 3970 l-80 -68 100 -1 c55 -1 172 -19 260 -40 88 -21 163 -35
166 -31 22 22 -319 218 -364 210 -1 0 -38 -32 -82 -70z"/>
<path d="M4190 3801 c-59 -14 -58 -14 67 -77 70 -34 139 -72 153 -84 53 -44
52 43 -1 113 -53 70 -91 78 -219 48z"/>
</g>
</svg>
